<?xml version="1.0" encoding="utf-8"?>
<!-- Generator: Adobe Illustrator 22.0.1, SVG Export Plug-In . SVG Version: 6.00 Build 0)  -->
<svg version="1.1" xmlns="http://www.w3.org/2000/svg" xmlns:xlink="http://www.w3.org/1999/xlink" x="0px" y="0px"
	 viewBox="0 0 595.3 841.9" style="enable-background:new 0 0 595.3 841.9;" xml:space="preserve">
<style type="text/css">
	.st0{fill:#881B4B;}
	.st1{opacity:0.25;fill:#FCE519;}
	.st2{opacity:0.5;fill:#FCE519;}
	.st3{fill:#FCE519;}
</style>
<g id="Layer_1">
</g>
<g id="Layer_2">
	<path class="st0" d="M297.6,836.9C174.8,836.9,66.1,767.7,0,661.7v180.2h595.3V661.7C529.1,767.7,420.5,836.9,297.6,836.9z"/>
	<path class="st0" d="M297.6,5c122.8,0,231.5,69.2,297.6,175.2V0H0v180.2C66.1,74.2,174.8,5,297.6,5z"/>
	<path class="st0" d="M297.6,42.8c130.5,0,243.5,85.9,297.6,210.8v-73.5C529.1,74.2,420.5,5,297.6,5S66.1,74.2,0,180.2v73.5
		C54.2,128.7,167.1,42.8,297.6,42.8z"/>
	<path class="st1" d="M297.6,42.8c130.5,0,243.5,85.9,297.6,210.8v-73.5C529.1,74.2,420.5,5,297.6,5S66.1,74.2,0,180.2v73.5
		C54.2,128.7,167.1,42.8,297.6,42.8z"/>
	<path class="st0" d="M297.6,836.9c122.8,0,231.5-69.2,297.6-175.2v-73.5c-54.2,124.9-167.1,210.8-297.6,210.8S54.2,713.1,0,588.2
		v73.5C66.1,767.7,174.8,836.9,297.6,836.9z"/>
	<path class="st1" d="M297.6,836.9c122.8,0,231.5-69.2,297.6-175.2v-73.5c-54.2,124.9-167.1,210.8-297.6,210.8S54.2,713.1,0,588.2
		v73.5C66.1,767.7,174.8,836.9,297.6,836.9z"/>
	<path class="st0" d="M297.6,80.3c149.9,0,274.2,124.6,297.6,287.8V253.7C541.1,128.7,428.2,42.8,297.6,42.8S54.2,128.7,0,253.7
		v114.5C23.4,204.9,147.8,80.3,297.6,80.3z"/>
	<path class="st1" d="M297.6,80.3c149.9,0,274.2,124.6,297.6,287.8V253.7C541.1,128.7,428.2,42.8,297.6,42.8S54.2,128.7,0,253.7
		v114.5C23.4,204.9,147.8,80.3,297.6,80.3z"/>
	<path class="st1" d="M297.6,80.3c149.9,0,274.2,124.6,297.6,287.8V253.7C541.1,128.7,428.2,42.8,297.6,42.8S54.2,128.7,0,253.7
		v114.5C23.4,204.9,147.8,80.3,297.6,80.3z"/>
	<path class="st0" d="M297.6,767.8C147.8,767.8,23.4,643.2,0,480v108.2c54.2,124.9,167.1,210.8,297.6,210.8s243.5-85.9,297.6-210.8
		V480C571.8,643.2,447.5,767.8,297.6,767.8z"/>
	<path class="st1" d="M297.6,767.8C147.8,767.8,23.4,643.2,0,480v108.2c54.2,124.9,167.1,210.8,297.6,210.8s243.5-85.9,297.6-210.8
		V480C571.8,643.2,447.5,767.8,297.6,767.8z"/>
	<path class="st1" d="M297.6,767.8C147.8,767.8,23.4,643.2,0,480v108.2c54.2,124.9,167.1,210.8,297.6,210.8s243.5-85.9,297.6-210.8
		V480C571.8,643.2,447.5,767.8,297.6,767.8z"/>
	<path class="st0" d="M297.6,80.3C147.8,80.3,23.4,204.9,0,368.2V480c23.4,163.3,147.8,287.8,297.6,287.8
		c149.9,0,274.2-124.6,297.6-287.8V368.2C571.8,204.9,447.5,80.3,297.6,80.3z M297.6,736.6c-151.4,0-274.2-139.9-274.2-312.5
		s122.8-312.5,274.2-312.5s274.2,139.9,274.2,312.5S449.1,736.6,297.6,736.6z"/>
	<path class="st1" d="M297.6,80.3C147.8,80.3,23.4,204.9,0,368.2V480c23.4,163.3,147.8,287.8,297.6,287.8
		c149.9,0,274.2-124.6,297.6-287.8V368.2C571.8,204.9,447.5,80.3,297.6,80.3z M297.6,736.6c-151.4,0-274.2-139.9-274.2-312.5
		s122.8-312.5,274.2-312.5s274.2,139.9,274.2,312.5S449.1,736.6,297.6,736.6z"/>
	<path class="st1" d="M297.6,80.3C147.8,80.3,23.4,204.9,0,368.2V480c23.4,163.3,147.8,287.8,297.6,287.8
		c149.9,0,274.2-124.6,297.6-287.8V368.2C571.8,204.9,447.5,80.3,297.6,80.3z M297.6,736.6c-151.4,0-274.2-139.9-274.2-312.5
		s122.8-312.5,274.2-312.5s274.2,139.9,274.2,312.5S449.1,736.6,297.6,736.6z"/>
	<path class="st1" d="M297.6,80.3C147.8,80.3,23.4,204.9,0,368.2V480c23.4,163.3,147.8,287.8,297.6,287.8
		c149.9,0,274.2-124.6,297.6-287.8V368.2C571.8,204.9,447.5,80.3,297.6,80.3z M297.6,736.6c-151.4,0-274.2-139.9-274.2-312.5
		s122.8-312.5,274.2-312.5s274.2,139.9,274.2,312.5S449.1,736.6,297.6,736.6z"/>
	<path class="st0" d="M297.6,111.6c-151.4,0-274.2,139.9-274.2,312.5s122.8,312.5,274.2,312.5s274.2-139.9,274.2-312.5
		S449.1,111.6,297.6,111.6z M297.6,708.2C160,708.2,48.4,581,48.4,424.1S160,140,297.6,140s249.3,127.2,249.3,284.1
		S435.3,708.2,297.6,708.2z"/>
	<path class="st1" d="M297.6,111.6c-151.4,0-274.2,139.9-274.2,312.5s122.8,312.5,274.2,312.5s274.2-139.9,274.2-312.5
		S449.1,111.6,297.6,111.6z M297.6,708.2C160,708.2,48.4,581,48.4,424.1S160,140,297.6,140s249.3,127.2,249.3,284.1
		S435.3,708.2,297.6,708.2z"/>
	<path class="st1" d="M297.6,111.6c-151.4,0-274.2,139.9-274.2,312.5s122.8,312.5,274.2,312.5s274.2-139.9,274.2-312.5
		S449.1,111.6,297.6,111.6z M297.6,708.2C160,708.2,48.4,581,48.4,424.1S160,140,297.6,140s249.3,127.2,249.3,284.1
		S435.3,708.2,297.6,708.2z"/>
	<path class="st1" d="M297.6,111.6c-151.4,0-274.2,139.9-274.2,312.5s122.8,312.5,274.2,312.5s274.2-139.9,274.2-312.5
		S449.1,111.6,297.6,111.6z M297.6,708.2C160,708.2,48.4,581,48.4,424.1S160,140,297.6,140s249.3,127.2,249.3,284.1
		S435.3,708.2,297.6,708.2z"/>
	<path class="st1" d="M297.6,111.6c-151.4,0-274.2,139.9-274.2,312.5s122.8,312.5,274.2,312.5s274.2-139.9,274.2-312.5
		S449.1,111.6,297.6,111.6z M297.6,708.2C160,708.2,48.4,581,48.4,424.1S160,140,297.6,140s249.3,127.2,249.3,284.1
		S435.3,708.2,297.6,708.2z"/>
	<path class="st0" d="M297.6,140C160,140,48.4,267.2,48.4,424.1S160,708.2,297.6,708.2S546.9,581,546.9,424.1S435.3,140,297.6,140z
		 M297.6,682.3C172.5,682.3,71,566.7,71,424.1s101.5-258.3,226.6-258.3s226.6,115.6,226.6,258.3S422.8,682.3,297.6,682.3z"/>
	<path class="st1" d="M297.6,140C160,140,48.4,267.2,48.4,424.1S160,708.2,297.6,708.2S546.9,581,546.9,424.1S435.3,140,297.6,140z
		 M297.6,682.3C172.5,682.3,71,566.7,71,424.1s101.5-258.3,226.6-258.3s226.6,115.6,226.6,258.3S422.8,682.3,297.6,682.3z"/>
	<path class="st1" d="M297.6,140C160,140,48.4,267.2,48.4,424.1S160,708.2,297.6,708.2S546.9,581,546.9,424.1S435.3,140,297.6,140z
		 M297.6,682.3C172.5,682.3,71,566.7,71,424.1s101.5-258.3,226.6-258.3s226.6,115.6,226.6,258.3S422.8,682.3,297.6,682.3z"/>
	<path class="st1" d="M297.6,140C160,140,48.4,267.2,48.4,424.1S160,708.2,297.6,708.2S546.9,581,546.9,424.1S435.3,140,297.6,140z
		 M297.6,682.3C172.5,682.3,71,566.7,71,424.1s101.5-258.3,226.6-258.3s226.6,115.6,226.6,258.3S422.8,682.3,297.6,682.3z"/>
	<path class="st1" d="M297.6,140C160,140,48.4,267.2,48.4,424.1S160,708.2,297.6,708.2S546.9,581,546.9,424.1S435.3,140,297.6,140z
		 M297.6,682.3C172.5,682.3,71,566.7,71,424.1s101.5-258.3,226.6-258.3s226.6,115.6,226.6,258.3S422.8,682.3,297.6,682.3z"/>
	<path class="st1" d="M297.6,140C160,140,48.4,267.2,48.4,424.1S160,708.2,297.6,708.2S546.9,581,546.9,424.1S435.3,140,297.6,140z
		 M297.6,682.3C172.5,682.3,71,566.7,71,424.1s101.5-258.3,226.6-258.3s226.6,115.6,226.6,258.3S422.8,682.3,297.6,682.3z"/>
	<path class="st0" d="M297.6,165.8C172.5,165.8,71,281.4,71,424.1s101.5,258.3,226.6,258.3s226.6-115.6,226.6-258.3
		S422.8,165.8,297.6,165.8z M297.6,658.9c-113.8,0-206-105.1-206-234.8s92.2-234.8,206-234.8s206,105.1,206,234.8
		S411.4,658.9,297.6,658.9z"/>
	<path class="st1" d="M297.6,165.8C172.5,165.8,71,281.4,71,424.1s101.5,258.3,226.6,258.3s226.6-115.6,226.6-258.3
		S422.8,165.8,297.6,165.8z M297.6,658.9c-113.8,0-206-105.1-206-234.8s92.2-234.8,206-234.8s206,105.1,206,234.8
		S411.4,658.9,297.6,658.9z"/>
	<path class="st1" d="M297.6,165.8C172.5,165.8,71,281.4,71,424.1s101.5,258.3,226.6,258.3s226.6-115.6,226.6-258.3
		S422.8,165.8,297.6,165.8z M297.6,658.9c-113.8,0-206-105.1-206-234.8s92.2-234.8,206-234.8s206,105.1,206,234.8
		S411.4,658.9,297.6,658.9z"/>
	<path class="st1" d="M297.6,165.8C172.5,165.8,71,281.4,71,424.1s101.5,258.3,226.6,258.3s226.6-115.6,226.6-258.3
		S422.8,165.8,297.6,165.8z M297.6,658.9c-113.8,0-206-105.1-206-234.8s92.2-234.8,206-234.8s206,105.1,206,234.8
		S411.4,658.9,297.6,658.9z"/>
	<path class="st1" d="M297.6,165.8C172.5,165.8,71,281.4,71,424.1s101.5,258.3,226.6,258.3s226.6-115.6,226.6-258.3
		S422.8,165.8,297.6,165.8z M297.6,658.9c-113.8,0-206-105.1-206-234.8s92.2-234.8,206-234.8s206,105.1,206,234.8
		S411.4,658.9,297.6,658.9z"/>
	<path class="st1" d="M297.6,165.8C172.5,165.8,71,281.4,71,424.1s101.5,258.3,226.6,258.3s226.6-115.6,226.6-258.3
		S422.8,165.8,297.6,165.8z M297.6,658.9c-113.8,0-206-105.1-206-234.8s92.2-234.8,206-234.8s206,105.1,206,234.8
		S411.4,658.9,297.6,658.9z"/>
	<path class="st2" d="M297.6,165.8C172.5,165.8,71,281.4,71,424.1s101.5,258.3,226.6,258.3s226.6-115.6,226.6-258.3
		S422.8,165.8,297.6,165.8z M297.6,658.9c-113.8,0-206-105.1-206-234.8s92.2-234.8,206-234.8s206,105.1,206,234.8
		S411.4,658.9,297.6,658.9z"/>
	<ellipse class="st3" cx="297.6" cy="424.1" rx="206" ry="234.8"/>
	<g id="Layer_3">
	</g>
</g>
</svg>
